<svg xmlns="http://www.w3.org/2000/svg" version="1.1" xmlns:xlink="http://www.w3.org/1999/xlink" width="800" height="800.30298"><svg xmlns="http://www.w3.org/2000/svg" version="1.1" xmlns:xlink="http://www.w3.org/1999/xlink" width="800" height="800.30298"><svg fill="#000000" width="800" height="800.30298" viewBox="0 0 50 50.018936" version="1.2" overflow="inherit" id="svg1" xmlns:xlink="http://www.w3.org/1999/xlink" xmlns="http://www.w3.org/2000/svg" xmlns:svg="http://www.w3.org/2000/svg">
  <defs id="defs1">
    <linearGradient id="linearGradient1267">
      <stop style="stop-color:#d41541;stop-opacity:1;" offset="0" id="stop1263"></stop>
      <stop style="stop-color:#d41541;stop-opacity:1;" offset="0.43000001" id="stop1283"></stop>
      <stop style="stop-color:#002366;stop-opacity:1;" offset="0.63" id="stop1285"></stop>
      <stop style="stop-color:#002366;stop-opacity:1;" offset="1" id="stop1265"></stop>
    </linearGradient>
    <linearGradient xlink:href="#linearGradient1267" id="linearGradient1281" x1="-3.9291763e-08" y1="0.0094679398" x2="50" y2="50.018936" gradientUnits="userSpaceOnUse"></linearGradient>
  </defs>
  <path style="mix-blend-mode:normal;fill:url(#linearGradient1281);fill-opacity:1;stroke-width:0.0625" d="M 9.2852783,0.00946794 C 4.1412553,0.00946794 -3.9291763e-8,4.150723 -3.9291763e-8,9.294746 V 40.72419 C -3.9291763e-8,45.868213 4.1412553,50.009468 9.2852783,50.009468 H 40.714722 C 45.858745,50.009468 50,45.868213 50,40.72419 V 9.294746 c 0,-5.144023 -4.141255,-9.28527806 -9.285278,-9.28527806 -10.476481,0 -20.952962,0 -31.4294437,0 z" id="rect1"></path>
  <path style="display:none;fill:#002366;fill-opacity:1;stroke-width:0.0625" d="M 9.2852783,0.009468 C 4.141255,0.009468 -3.9291763e-8,4.1507231 -3.9291763e-8,9.2947461 V 40.72419 C -3.9291763e-8,45.868213 4.141255,50.009468 9.2852783,50.009468 H 40.714722 C 45.858745,50.009468 50,45.868213 50,40.72419 V 9.2947461 C 50,4.1507231 45.858745,0.009468 40.714722,0.009468 c -10.476481,0 -20.952962,0 -31.4294437,0 z" id="rect1-3"></path>
  <path d="m 33.10972,35.409058 -0.09153,-0.17496 0.04617,-0.06561 0.04617,-0.06561 c 0.85131,-0.35154 1.62486,-0.78651 2.31741,-1.29924 0.69174,-0.5184 1.15506,-1.27494 1.39401,-2.27529 l 0.17415,-0.80028 v -20.67201 c 0,-0.49896 -0.14904,-1.01655 -0.44307,-1.54305 -0.29403,-0.53541 -0.66096,-1.01412 -1.10565,-1.43937 -0.43983,-0.4212 -0.92988,-0.77841 -1.47744,-1.06191 -0.54756,-0.27864 -1.0692,-0.41634 -1.57059,-0.41634 H 17.6047 c -0.47223,0 -0.98172,0.1296 -1.52685,0.39447 -0.54675,0.26568 -1.04814,0.60507 -1.50174,1.01817 -0.45522,0.40905 -0.83187,0.8748 -1.1259,1.38753 -0.29484,0.52245 -0.44307,1.02627 -0.44307,1.5309 v 20.97981 c 0,0.35316 0.09315,0.72171 0.26487,1.10403 0.1782,0.38394 0.39852,0.74277 0.66258,1.07811 0.26406,0.34506 0.55485,0.65367 0.86427,0.9315 0.30942,0.27783 0.60993,0.50787 0.90558,0.68364 0.14256,0.05994 0.40419,0.15228 0.77517,0.26973 0.36288,0.11664 0.53298,0.20331 0.50544,0.26001 l -6.05556,9.19026 h 3.53241 l 4.42017,-6.40629 h 12.19455 l 4.41531,6.40629 h 3.57858 z M 21.48865,7.360378 c 0,-0.14823 0.07047,-0.2997 0.22113,-0.46575 0.14499,-0.16119 0.2916,-0.23895 0.44145,-0.23895 h 5.65542 c 0.0567,0 0.17901,0.0567 0.35478,0.17253 0.17415,0.11826 0.26244,0.23571 0.26244,0.35316 v 2.16432 c 0,0.14823 -0.07452,0.28431 -0.21951,0.3969 -0.14904,0.1215 -0.2835,0.18306 -0.3969,0.18306 h -5.69835 l -0.17982,-0.14013 c -0.08505,-0.0567 -0.18387,-0.13446 -0.28593,-0.24381 -0.10368,-0.09882 -0.15471,-0.20736 -0.15471,-0.32481 z m -5.69997,6.05232 c 0,-0.29403 0.06966,-0.58239 0.20007,-0.86346 0.13122,-0.27945 0.30213,-0.5346 0.50787,-0.77355 0.20736,-0.23652 0.45036,-0.42201 0.72738,-0.57024 0.28188,-0.14904 0.57105,-0.22194 0.86508,-0.22194 h 13.74003 c 0.26082,0 0.5265,0.06156 0.79137,0.17334 0.26568,0.11826 0.50787,0.2835 0.73062,0.48762 0.22194,0.20412 0.39609,0.43092 0.53055,0.66582 0.13122,0.23004 0.19602,0.48276 0.19602,0.74763 v 4.68423 c 0,0.26568 -0.07128,0.51678 -0.2187,0.7695 -0.14742,0.25677 -0.33858,0.47871 -0.57429,0.66987 -0.23895,0.18792 -0.48438,0.34344 -0.75168,0.45684 -0.26406,0.12555 -0.52974,0.1782 -0.79299,0.1782 H 18.17737 l -0.22356,-0.03969 c -0.11664,-0.03078 -0.20736,-0.05994 -0.26649,-0.09153 -0.49815,-0.08586 -0.93879,-0.35235 -1.32273,-0.79542 -0.38394,-0.44226 -0.57591,-0.92664 -0.57591,-1.45557 z m 4.08969,18.24606 c -0.45603,0.47061 -1.02708,0.70551 -1.701,0.70551 -0.67797,0 -1.2312,-0.2349 -1.6605,-0.70551 -0.42606,-0.4698 -0.63909,-1.04814 -0.63909,-1.72611 0,-0.61803 0.22194,-1.15344 0.66501,-1.60866 0.44064,-0.45765 0.98577,-0.68931 1.63458,-0.68931 0.67392,0 1.24416,0.2187 1.701,0.63909 0.45684,0.43173 0.68445,0.99306 0.68445,1.70505 0,0.64881 -0.22761,1.21014 -0.68445,1.67994 z m 10.11609,0 c -0.45522,-0.4698 -0.68688,-1.04814 -0.68688,-1.72611 0,-0.67878 0.24219,-1.22715 0.729,-1.65888 0.48762,-0.4212 1.05381,-0.63909 1.70424,-0.63909 0.6723,0 1.22796,0.23085 1.65483,0.68931 0.42525,0.45522 0.64233,0.99144 0.64233,1.60866 0,0.67797 -0.22275,1.25631 -0.6642,1.72611 -0.44469,0.47061 -1.00116,0.70551 -1.68156,0.70551 -0.67554,0 -1.24254,-0.2349 -1.69776,-0.70551 z" id="path1" style="fill:#ffffff;stroke-width:0.81"></path>
</svg></svg><style>@media (prefers-color-scheme: light) { :root { filter: none; } }
@media (prefers-color-scheme: dark) { :root { filter: none; } }
</style></svg>