<?xml version="1.0" encoding="UTF-8" standalone="no"?>
<!-- Created with Inkscape (http://www.inkscape.org/) -->

<svg
   width="122.52636mm"
   height="39.597473mm"
   viewBox="0 0 122.52636 39.597473"
   version="1.1"
   id="svg1"
   xmlns:inkscape="http://www.inkscape.org/namespaces/inkscape"
   xmlns:sodipodi="http://sodipodi.sourceforge.net/DTD/sodipodi-0.dtd"
   xmlns="http://www.w3.org/2000/svg"
   xmlns:svg="http://www.w3.org/2000/svg">
  <sodipodi:namedview
     id="namedview1"
     pagecolor="#505050"
     bordercolor="#eeeeee"
     borderopacity="1"
     inkscape:showpageshadow="0"
     inkscape:pageopacity="0"
     inkscape:pagecheckerboard="0"
     inkscape:deskcolor="#505050"
     inkscape:document-units="mm">
    <inkscape:page
       x="0"
       y="0"
       width="122.52636"
       height="39.597473"
       id="page2"
       margin="0"
       bleed="0" />
  </sodipodi:namedview>
  <defs
     id="defs1" />
  <g
     inkscape:label="Warstwa 1"
     inkscape:groupmode="layer"
     id="layer1"
     transform="translate(-9.7280886,-59.628747)">
    <path
       d="m 102.36931,98.726212 0.63734,-3.849549 15.55116,-12.338952 q 2.77882,-2.217952 4.56338,-3.900537 1.81005,-1.682584 2.77881,-3.263193 0.99425,-1.606104 1.30018,-3.518131 0.4079,-2.421902 -0.15296,-4.12998 -0.56087,-1.708078 -2.09049,-2.600358 -1.52962,-0.917773 -4.0535,-0.917773 -2.44739,0 -4.51238,1.096229 -2.06499,1.070736 -3.46715,3.059245 -1.40215,1.963015 -1.86104,4.665347 h -4.28294 q 0.63734,-3.798562 2.62585,-6.704844 1.98851,-2.906282 4.97128,-4.537879 2.98276,-1.65709 6.60286,-1.65709 3.6711,0 6.24596,1.453141 2.57486,1.453141 3.74758,4.053498 1.17271,2.600358 0.58635,6.067502 -0.30592,1.810052 -1.01975,3.467143 -0.71382,1.631597 -1.93752,3.2377 -1.1982,1.606103 -2.98276,3.288688 -1.75907,1.682584 -4.12998,3.569118 l -11.80359,9.330695 -0.0255,0.05099 h 18.32997 l -0.66283,4.078993 z"
       id="text6-1"
       style="font-style:italic;font-size:52.2111px;font-family:'Inter Variable';-inkscape-font-specification:'Inter Variable Italic';fill:none;stroke:#000000;stroke-linejoin:round;paint-order:stroke fill markers"
       aria-label="2" />
    <path
       d="m 87.176441,98.726212 0.637342,-3.849549 15.551157,-12.338952 q 2.77881,-2.217952 4.56337,-3.900537 1.81006,-1.682584 2.77882,-3.263193 0.99425,-1.606104 1.30018,-3.518131 0.4079,-2.421902 -0.15297,-4.12998 -0.56086,-1.708078 -2.09048,-2.600358 -1.52962,-0.917773 -4.0535,-0.917773 -2.44739,0 -4.51238,1.096229 -2.064993,1.070736 -3.467147,3.059245 -1.402153,1.963015 -1.86104,4.665347 h -4.282942 q 0.637343,-3.798562 2.625851,-6.704844 1.988509,-2.906282 4.971272,-4.537879 2.982766,-1.65709 6.602866,-1.65709 3.6711,0 6.24596,1.453141 2.57486,1.453141 3.74757,4.053498 1.17271,2.600358 0.58636,6.067502 -0.30593,1.810052 -1.01975,3.467143 -0.71382,1.631597 -1.93752,3.2377 -1.1982,1.606103 -2.98276,3.288688 -1.75907,1.682584 -4.12998,3.569118 l -11.803587,9.330695 -0.02549,0.05099 h 18.329967 l -0.66284,4.078993 z"
       id="text6"
       style="font-style:italic;font-size:52.2111px;font-family:'Inter Variable';-inkscape-font-specification:'Inter Variable Italic';fill:none;stroke:#000000;stroke-linejoin:round;paint-order:stroke fill markers"
       inkscape:label="text6"
       aria-label="2" />
    <g
       id="text2"
       style="font-stretch:semi-condensed;font-size:192px;font-family:System-ui;-inkscape-font-specification:'System-ui Semi-Condensed';white-space:pre;fill:#002366;stroke-width:7.55906;paint-order:stroke fill markers"
       transform="matrix(0.26458333,0,0,0.26458333,-44.448433,0.9999987)"
       aria-label="TD2">
      <path
         style="font-style:italic;font-stretch:normal;font-family:'Inter Variable';-inkscape-font-specification:'Inter Variable Italic';fill:#a05a2c;stroke:#002366"
         d="m 209.23242,242.6185 2.53125,-15 h 107.8125 l -2.53125,15 h -45.375 l -20.625,124.6875 h -16.875 l 20.625,-124.6875 z"
         id="path6" />
      <path
         style="font-style:italic;font-stretch:normal;font-family:'Inter Variable';-inkscape-font-specification:'Inter Variable Italic';fill:#a05a2c;stroke:#002366"
         d="m 360.45117,367.306 h -35.8125 l 2.4375,-15 h 32.4375 q 17.34375,0 29.8125,-6.65625 12.46875,-6.65625 20.0625,-19.03125 7.6875,-12.375 10.5,-29.4375 2.8125,-16.875 0.1875,-29.0625 -2.53125,-12.28125 -11.4375,-18.84375 -8.90625,-6.65625 -25.3125,-6.65625 h -38.8125 l 2.53125,-15 h 35.4375 q 20.34375,0 33.65625,8.34375 13.40625,8.34375 18.75,24 5.4375,15.5625 1.875,37.21875 -3.5625,21.84375 -13.5,37.59375 -9.9375,15.65625 -25.78125,24.09375 -15.75,8.4375 -37.03125,8.4375 z M 355.10742,227.6185 331.95117,367.306 h -16.875 l 23.15625,-139.6875 z m 86.0625,139.6875 2.34375,-14.15625 57.1875,-45.375 q 10.21875,-8.15625 16.78125,-14.34375 6.65625,-6.1875 10.21875,-12 3.65625,-5.90625 4.78125,-12.9375 1.5,-8.90625 -0.5625,-15.1875 -2.0625,-6.28125 -7.6875,-9.5625 -5.625,-3.375 -14.90625,-3.375 -9,0 -16.59375,4.03125 -7.59375,3.9375 -12.75,11.25 -5.15625,7.21875 -6.84375,17.15625 h -15.75 q 2.34375,-13.96875 9.65625,-24.65625 7.3125,-10.6875 18.28125,-16.6875 10.96875,-6.09375 24.28125,-6.09375 13.5,0 22.96875,5.34375 9.46875,5.34375 13.78125,14.90625 4.3125,9.5625 2.15625,22.3125 -1.125,6.65625 -3.75,12.75 -2.625,6 -7.125,11.90625 -4.40625,5.90625 -10.96875,12.09375 -6.46875,6.1875 -15.1875,13.125 l -43.40625,34.3125 -0.0937,0.1875 h 67.40625 l -2.4375,15 z"
         id="path7" />
    </g>
  </g>
</svg>
