<?xml version="1.0" encoding="UTF-8" standalone="no"?>
<!-- Created with Inkscape (http://www.inkscape.org/) -->

<svg
   width="135.38197mm"
   height="59.736271mm"
   viewBox="0 0 135.38197 59.736271"
   version="1.1"
   id="svg1"
   xmlns="http://www.w3.org/2000/svg"
   xmlns:svg="http://www.w3.org/2000/svg">
  <defs
     id="defs1" />
  <g
     id="layer1"
     transform="translate(-49.042775,-61.644834)">
    <g
       id="g16"
       transform="translate(-9.6480109,64.567458)">
      <path
         id="path6"
         style="font-weight:bold;font-size:96px;font-family:Montserrat;-inkscape-font-specification:'Montserrat Bold';white-space:pre;fill:#333333"
         transform="scale(0.26458333)"
         d="m 423.71147,213.57673 h 15.552 v -18.72 l 12.75637,0.0668 c 0.71958,0.33867 2.4521,1.62832 2.94998,2.13753 l 11.55765,16.51564 h 16.704 l -14.976,-21.6 c 8.736,-3.744 13.728,-11.136 13.728,-21.216 0,-15.072 -10.848,-24.384 -29.568,-24.384 h -28.704 z m 15.552,-31.104 v -23.424 h 12.672 c 9.504,0 14.304,4.32 14.304,11.712 0,7.296 -4.8,11.712 -14.304,11.712 z m 55.00806,31.104 h 52.032 v -12.48 h -36.576 v -15.552 h 17.2 c 4.03301,-0.81624 7.30666,-6.92996 10,-12.096 h -27.2 v -14.592 h 27.328 c 5.13093,-1.2655 8.58245,-7.75298 12,-12.48 h -54.784 z m 96.86395,1.152 c 9.6,0 19.776,-2.976 27.168,-8.544 v -27.264 h -14.208 l -13.07268,0.0417 1e-5,10.07008 12.93058,-0.10035 0.14209,9.76453 c -3.84,2.016 -7.872,2.784 -12.096,2.784 -12.864,0 -21.792,-8.928 -21.792,-21.504 0,-12.768 8.928,-21.504 21.984,-21.504 6.816,0 12.48,2.4 17.376,7.584 l 9.984,-9.216 c -6.528,-7.584 -16.32,-11.616 -28.128,-11.616 -21.408,0 -36.96,14.496 -36.96,34.752 0,20.256 15.552,34.752 36.672,34.752 z m 41.56799,-1.152 h 15.552 v -67.2 c -4.92764,2.57561 -11.75911,6.25471 -15.552,10 z m 64.03192,1.152 c 21.12,0 36.768,-14.688 36.768,-34.752 0,-20.064 -15.648,-34.752 -36.768,-34.752 -21.216,0 -36.768,14.784 -36.768,34.752 0,19.968 15.552,34.752 36.768,34.752 z m 0,-13.248 c -12,0 -21.024,-8.736 -21.024,-21.504 0,-12.768 9.024,-21.504 21.024,-21.504 12,0 21.024,8.736 21.024,21.504 0,12.768 -9.024,21.504 -21.024,21.504 z" />
      <path
         id="text1"
         style="font-weight:bold;font-size:96px;font-family:Montserrat;-inkscape-font-specification:'Montserrat Bold';white-space:pre;fill:#d40000"
         transform="scale(0.26458333)"
         d="m 243.32745,213.57673 h 8.11325 a 7.4387499,7.4387499 135 0 0 7.43875,-7.43875 v -47.08925 h 15.12699 a 6.3770089,6.3770089 135 0 0 6.37701,-6.37701 v -6.29499 h -58.56 v 12.672 h 21.504 z m 45.40801,0 h 30.528 c 21.984,0 37.056,-13.248 37.056,-33.6 0,-20.352 -15.072,-33.6 -37.056,-33.6 h -30.528 z m 15.552,-12.768 v -41.664 h 14.208 c 13.344,0 22.08,7.968 22.08,20.832 0,12.864 -8.736,20.832 -22.08,20.832 z m 57.98399,12.768 h 50.784 v -5.7817 a 6.890297,6.890297 45 0 0 -6.8903,-6.8903 l -22.0057,0 15.456,-14.592 c 9.408,-8.736 11.232,-14.688 11.232,-21.216 0,-12.192 -9.984,-19.872 -24.96,-19.872 -12.096,0 -21.504,4.896 -26.688,12.48 l 11.328,7.296 c 3.264,-4.512 8.16,-6.72 13.92,-6.72 7.104,0 10.752,3.072 10.752,8.352 0,3.264 -1.056,6.72 -7.008,12.384 l -25.92,24.48 z" />
    </g>
    <path
       id="path20"
       style="display:inline;fill:#ff0000;stroke-width:0.264583"
       d="m 136.11676,31.587736 c 0,0 1.43922,1.032334 2.47065,1.999878 0.94167,0.883332 1.5291,2.999817 1.5291,2.999817 h 9.72287 a 2.8028339,2.8028339 151.00294 0 0 2.37679,-1.317314 l 2.30153,-3.682381 z m -5.17281,1.217497 c -3.2004,0 -5.68947,1.295524 -7.06107,3.302124 l 2.99723,1.930115 c 0.8636,-1.1938 2.15898,-1.77767 3.68298,-1.77767 1.8796,0 2.84479,0.812685 2.84479,2.209684 0,0.8636 -0.27935,1.777686 -1.85415,3.276286 l -6.85798,6.477124 v 2.667021 h 13.43639 v -1.529622 c 5e-5,-1.006714 -0.81592,-1.822909 -1.82263,-1.823145 h -5.82238 l 4.08915,-3.860746 c 2.4892,-2.3114 2.97191,-3.886411 2.97191,-5.613611 0,-3.2258 -2.64184,-5.25756 -6.60424,-5.25756 z m -43.408208,0.304891 v 3.352767 h 5.689575 v 14.427026 h 2.146639 c 1.086732,-1.82e-4 1.967657,-0.881107 1.967839,-1.967839 V 36.462891 h 4.002335 c 0.93183,-6e-6 1.68723,-0.755403 1.68724,-1.687236 v -1.665531 z m 17.703828,0 v 17.779793 h 8.07703 c 5.8166,0 9.80457,-3.505097 9.80457,-8.889897 0,-5.3848 -3.98797,-8.889896 -9.80457,-8.889896 z m 4.11448,3.378088 h 3.75946 c 3.5306,0 5.84202,2.108208 5.84202,5.511808 0,3.4036 -2.31142,5.511809 -5.84202,5.511809 h -3.75946 z m 30.58366,3.507796 c 0,0 -0.58743,2.116485 -1.5291,2.999817 -1.03143,0.967544 -2.47117,1.999878 -2.47117,1.999878 l 8.84339,0.0036 c 0.76035,2.61e-4 1.46935,-0.38369 1.88464,-1.020609 l 2.59519,-3.979602 z m -0.93793,7.004224 c 1,1 1.00046,0.999695 1.00046,4.999695 h 0.78514 a 1.7590802,1.7590802 151.00294 0 0 1.49169,-0.826757 l 2.60814,-4.172938 h -1.06505 z"
       transform="matrix(1.44,0,0,1.44,-54.156771,16.158491)" />
  </g>
</svg>
