<?xml version="1.0" encoding="UTF-8" standalone="no"?>
<!-- Created with Inkscape (http://www.inkscape.org/) -->

<svg
   width="132mm"
   height="60.828686mm"
   viewBox="0 0 132 60.828686"
   version="1.1"
   id="svg1"
   inkscape:version="1.4 (e7c3feb100, 2024-10-09)"
   sodipodi:docname="wagon.svg"
   xmlns:inkscape="http://www.inkscape.org/namespaces/inkscape"
   xmlns:sodipodi="http://sodipodi.sourceforge.net/DTD/sodipodi-0.dtd"
   xmlns="http://www.w3.org/2000/svg"
   xmlns:svg="http://www.w3.org/2000/svg">
  <sodipodi:namedview
     id="namedview1"
     pagecolor="#ffffff"
     bordercolor="#eeeeee"
     borderopacity="1"
     inkscape:showpageshadow="0"
     inkscape:pageopacity="0"
     inkscape:pagecheckerboard="0"
     inkscape:deskcolor="#505050"
     inkscape:document-units="mm"
     inkscape:zoom="1.9823288"
     inkscape:cx="397.26003"
     inkscape:cy="278.96482"
     inkscape:window-width="1920"
     inkscape:window-height="1131"
     inkscape:window-x="0"
     inkscape:window-y="0"
     inkscape:window-maximized="1"
     inkscape:current-layer="layer1">
    <inkscape:page
       x="0"
       y="0"
       width="132"
       height="60.828686"
       id="page2"
       margin="0"
       bleed="0" />
  </sodipodi:namedview>
  <defs
     id="defs1">
    <inkscape:path-effect
       effect="fillet_chamfer"
       id="path-effect4"
       is_visible="true"
       lpeversion="1"
       nodesatellites_param="F,0,0,1,0,0,0,1 @ F,0,0,1,0,0,0,1 @ F,0,0,1,0,8,0,1 @ F,0,0,1,0,8,0,1"
       radius="0"
       unit="px"
       method="auto"
       mode="F"
       chamfer_steps="1"
       flexible="false"
       use_knot_distance="true"
       apply_no_radius="true"
       apply_with_radius="true"
       only_selected="false"
       hide_knots="false" />
    <inkscape:path-effect
       effect="fillet_chamfer"
       id="path-effect3"
       is_visible="true"
       lpeversion="1"
       nodesatellites_param="F,0,0,1,0,4,0,1 @ F,0,0,1,0,4,0,1 @ F,0,0,1,0,4,0,1 @ F,0,0,1,0,4,0,1"
       radius="0"
       unit="px"
       method="auto"
       mode="F"
       chamfer_steps="1"
       flexible="false"
       use_knot_distance="true"
       apply_no_radius="true"
       apply_with_radius="true"
       only_selected="false"
       hide_knots="false" />
    <inkscape:path-effect
       effect="fillet_chamfer"
       id="path-effect2"
       is_visible="true"
       lpeversion="1"
       nodesatellites_param="F,0,0,1,0,4,0,1 @ F,0,0,1,0,4,0,1 @ F,0,0,1,0,4,0,1 @ F,0,0,1,0,4,0,1"
       radius="0"
       unit="px"
       method="auto"
       mode="F"
       chamfer_steps="1"
       flexible="false"
       use_knot_distance="true"
       apply_no_radius="true"
       apply_with_radius="true"
       only_selected="false"
       hide_knots="false" />
    <inkscape:path-effect
       effect="fillet_chamfer"
       id="path-effect4-7"
       is_visible="true"
       lpeversion="1"
       nodesatellites_param="F,0,0,1,0,0,0,1 @ F,0,0,1,0,0,0,1 @ F,0,0,1,0,8,0,1 @ F,0,0,1,0,8,0,1"
       radius="0"
       unit="px"
       method="auto"
       mode="F"
       chamfer_steps="1"
       flexible="false"
       use_knot_distance="true"
       apply_no_radius="true"
       apply_with_radius="true"
       only_selected="false"
       hide_knots="false" />
  </defs>
  <g
     inkscape:label="Warstwa 1"
     inkscape:groupmode="layer"
     id="layer1"
     transform="translate(-49.16,-51.140001)">
    <path
       style="fill:#002366;fill-opacity:1;stroke-width:0.561469;stroke-dasharray:none;paint-order:stroke fill markers"
       id="rect3"
       width="25.000004"
       height="10"
       x="61.993221"
       y="102.14"
       sodipodi:type="rect"
       transform="translate(-0.59367854,-0.17131706)"
       d="m 61.993221,102.14 h 25.000004 v 2 a 8,8 135 0 1 -8,8 h -9.000004 a 8,8 45 0 1 -8,-8 z"
       inkscape:path-effect="#path-effect4" />
    <path
       style="fill:#002366;fill-opacity:1;stroke-width:0.561469;stroke-dasharray:none;paint-order:stroke fill markers"
       id="rect3-9"
       width="25.000004"
       height="10"
       x="61.993221"
       y="102.14"
       sodipodi:type="rect"
       transform="translate(81.927229,-0.17131706)"
       d="m 61.993221,102.14 h 25.000004 v 2 a 8,8 135 0 1 -8,8 h -9.000004 a 8,8 45 0 1 -8,-8 z"
       inkscape:path-effect="#path-effect4-7" />
    <path
       style="fill:#002366;fill-opacity:1;stroke:#ffffff;stroke-width:2;stroke-linejoin:miter;stroke-dasharray:none;stroke-opacity:1;paint-order:stroke fill markers"
       id="rect1"
       width="130"
       height="50"
       x="50.16"
       y="52.139999"
       sodipodi:type="rect"
       d="m 54.16,52.139999 h 122 a 4,4 45 0 1 4,4 v 42 a 4,4 135 0 1 -4,4.000001 h -122 a 4,4 45 0 1 -4,-4.000001 v -42 a 4,4 135 0 1 4,-4 z"
       inkscape:path-effect="#path-effect2" />
    <path
       style="fill:#ffffff;fill-opacity:1;stroke-width:0.604999;stroke-dasharray:none;paint-order:stroke fill markers"
       id="rect2"
       width="118.10425"
       height="25"
       x="56.107876"
       y="57.566288"
       sodipodi:type="rect"
       d="M 60.107876,57.566288 H 170.21212 a 4,4 45 0 1 4,4 v 17 a 4,4 135 0 1 -4,4 l -110.104244,0 a 4,4 45 0 1 -4,-4 v -17 a 4,4 135 0 1 4,-4 z"
       inkscape:path-effect="#path-effect3" />
  </g>
</svg>
